name ./resultDataOpenSim/trcMotMarkerGrf/sub06/grf-01-08.mot
datacolumns 19
datarows 20
range 0.47200000 0.54800000
endheader

                time	     ground_force_vx	     ground_force_vy	     ground_force_vz	     ground_force_px	     ground_force_py	     ground_force_pz	   l_ground_force_vx	   l_ground_force_vy	   l_ground_force_vz	   l_ground_force_px	   l_ground_force_py	   l_ground_force_pz	     ground_torque_x	     ground_torque_y	     ground_torque_z	   l_ground_torque_x	   l_ground_torque_y	   l_ground_torque_z	
          0.47200000	         58.35149525	        523.50014625	        -22.14842620	         -0.70647035	          0.00000000	          0.10813955	          0.00000000	          0.00000000	          0.00000000	          0.00000000	          0.00000000	          0.00000000	          0.00000000	          2.88934070	          0.00000000	          0.00000000	          0.00000000	          0.00000000	
          0.47600000	         61.94664451	        543.25339105	        -23.07377773	         -0.70595999	          0.00000000	          0.10763041	          0.00000000	          0.00000000	          0.00000000	          0.00000000	          0.00000000	          0.00000000	          0.00000000	          2.94447280	          0.00000000	          0.00000000	          0.00000000	          0.00000000	
          0.48000000	         66.40653686	        563.28714551	        -24.10506778	         -0.70551457	          0.00000000	          0.10717913	          0.00000000	          0.00000000	          0.00000000	          0.00000000	          0.00000000	          0.00000000	          0.00000000	          2.94543431	          0.00000000	          0.00000000	          0.00000000	          0.00000000	
          0.48400000	         71.73771627	        583.42480980	        -25.01382848	         -0.70512996	          0.00000000	          0.10677884	          0.00000000	          0.00000000	          0.00000000	          0.00000000	          0.00000000	          0.00000000	          0.00000000	          2.92455718	          0.00000000	          0.00000000	          0.00000000	          0.00000000	
          0.48800000	         77.85778320	        603.50795768	        -25.60772440	         -0.70479711	          0.00000000	          0.10641582	          0.00000000	          0.00000000	          0.00000000	          0.00000000	          0.00000000	          0.00000000	          0.00000000	          2.91404783	          0.00000000	          0.00000000	          0.00000000	          0.00000000	
          0.49200000	         84.62474774	        623.39934324	        -25.77718447	         -0.70451478	          0.00000000	          0.10607511	          0.00000000	          0.00000000	          0.00000000	          0.00000000	          0.00000000	          0.00000000	          0.00000000	          2.93877115	          0.00000000	          0.00000000	          0.00000000	          0.00000000	
          0.49600000	         91.87714442	        642.97457741	        -25.52013343	         -0.70428142	          0.00000000	          0.10574444	          0.00000000	          0.00000000	          0.00000000	          0.00000000	          0.00000000	          0.00000000	          0.00000000	          3.01096178	          0.00000000	          0.00000000	          0.00000000	          0.00000000	
          0.50000000	         99.46647641	        662.12136804	        -24.94029774	         -0.70408890	          0.00000000	          0.10542198	          0.00000000	          0.00000000	          0.00000000	          0.00000000	          0.00000000	          0.00000000	          0.00000000	          3.12801873	          0.00000000	          0.00000000	          0.00000000	          0.00000000	
          0.50400000	        107.27481332	        680.74367923	        -24.22220567	         -0.70392514	          0.00000000	          0.10511273	          0.00000000	          0.00000000	          0.00000000	          0.00000000	          0.00000000	          0.00000000	          0.00000000	          3.27387008	          0.00000000	          0.00000000	          0.00000000	          0.00000000	
          0.50800000	        115.21998515	        698.75200887	        -23.58743221	         -0.70377180	          0.00000000	          0.10482569	          0.00000000	          0.00000000	          0.00000000	          0.00000000	          0.00000000	          0.00000000	          0.00000000	          3.42354761	          0.00000000	          0.00000000	          0.00000000	          0.00000000	
          0.51200000	        123.25209983	        716.04816937	        -23.24300019	         -0.70361145	          0.00000000	          0.10456685	          0.00000000	          0.00000000	          0.00000000	          0.00000000	          0.00000000	          0.00000000	          0.00000000	          3.54976678	          0.00000000	          0.00000000	          0.00000000	          0.00000000	
          0.51600000	        131.34365479	        732.52066079	        -23.33739318	         -0.70343299	          0.00000000	          0.10433856	          0.00000000	          0.00000000	          0.00000000	          0.00000000	          0.00000000	          0.00000000	          0.00000000	          3.62979037	          0.00000000	          0.00000000	          0.00000000	          0.00000000	
          0.52000000	        139.47514284	        748.04120946	        -23.93162808	         -0.70323207	          0.00000000	          0.10414025	          0.00000000	          0.00000000	          0.00000000	          0.00000000	          0.00000000	          0.00000000	          0.00000000	          3.65089080	          0.00000000	          0.00000000	          0.00000000	          0.00000000	
          0.52400000	        147.62260626	        762.44947351	        -24.98520660	         -0.70300618	          0.00000000	          0.10396734	          0.00000000	          0.00000000	          0.00000000	          0.00000000	          0.00000000	          0.00000000	          0.00000000	          3.61319354	          0.00000000	          0.00000000	          0.00000000	          0.00000000	
          0.52800000	        155.75426840	        775.53682211	        -26.36008026	         -0.70274885	          0.00000000	          0.10381108	          0.00000000	          0.00000000	          0.00000000	          0.00000000	          0.00000000	          0.00000000	          0.00000000	          3.52934381	          0.00000000	          0.00000000	          0.00000000	          0.00000000	
          0.53200000	        163.83523082	        787.04728515	        -27.84593653	         -0.70245308	          0.00000000	          0.10366281	          0.00000000	          0.00000000	          0.00000000	          0.00000000	          0.00000000	          0.00000000	          0.00000000	          3.42118165	          0.00000000	          0.00000000	          0.00000000	          0.00000000	
          0.53600000	        171.83212036	        796.69786762	        -29.20246371	         -0.70211447	          0.00000000	          0.10351634	          0.00000000	          0.00000000	          0.00000000	          0.00000000	          0.00000000	          0.00000000	          0.00000000	          3.31430327	          0.00000000	          0.00000000	          0.00000000	          0.00000000	
          0.54000000	        179.71179304	        804.21292049	        -30.20900069	         -0.70173072	          0.00000000	          0.10336830	          0.00000000	          0.00000000	          0.00000000	          0.00000000	          0.00000000	          0.00000000	          0.00000000	          3.23183242	          0.00000000	          0.00000000	          0.00000000	          0.00000000	
          0.54400000	        187.43745903	        809.36140990	        -30.70921882	         -0.70130683	          0.00000000	          0.10321626	          0.00000000	          0.00000000	          0.00000000	          0.00000000	          0.00000000	          0.00000000	          0.00000000	          3.18881089	          0.00000000	          0.00000000	          0.00000000	          0.00000000	
          0.54800000	        194.97110085	        811.98010001	        -30.63987047	         -0.70085843	          0.00000000	          0.10305765	          0.00000000	          0.00000000	          0.00000000	          0.00000000	          0.00000000	          0.00000000	          0.00000000	          3.18838395	          0.00000000	          0.00000000	          0.00000000	          0.00000000	
